
<svg version="1.1" xmlns="http://www.w3.org/2000/svg" xmlns:xlink="http://www.w3.org/1999/xlink" xml:space="preserve" style="background-color:#0b1323">
  <rect x="45" y="67.5" fill="none" stroke="white" stroke-width="1" width="90" height="85"/>
  <rect x="45" y="152.5" fill="none" stroke="white" stroke-width="1" width="90" height="85"/>
  <rect x="45" y="237.5" fill="none" stroke="white" stroke-width="1" width="90" height="85"/>
  <rect x="45" y="322.5" fill="none" stroke="white" stroke-width="1" width="90" height="85"/>
  <rect x="135" y="62.5" fill="none" stroke="white" stroke-width="1" width="90" height="85"/>
  <rect x="135" y="147.5" fill="none" stroke="white" stroke-width="1" width="90" height="85"/>
  <rect x="135" y="232.5" fill="none" stroke="white" stroke-width="1" width="90" height="85"/>
  <rect x="135" y="317.5" fill="none" stroke="white" stroke-width="1" width="90" height="85"/>
  <rect x="225" y="47.5" fill="none" stroke="white" stroke-width="1" width="90" height="85"/>
  <rect x="225" y="132.5" fill="none" stroke="white" stroke-width="1" width="90" height="85"/>
  <rect x="225" y="217.5" fill="none" stroke="white" stroke-width="1" width="90" height="85"/>
  <rect x="225" y="302.5" fill="none" stroke="white" stroke-width="1" width="90" height="85"/>
  <rect x="315" y="37.5" fill="none" stroke="white" stroke-width="1" width="90" height="85"/>
  <rect x="315" y="122.5" fill="none" stroke="white" stroke-width="1" width="90" height="85"/>
  <rect x="315" y="207.5" fill="none" stroke="white" stroke-width="1" width="90" height="85"/>
  <rect x="315" y="292.5" fill="none" stroke="white" stroke-width="1" width="90" height="85"/>
  <rect x="405" y="47.5" fill="none" stroke="white" stroke-width="1" width="90" height="85"/>
  <rect x="405" y="132.5" fill="none" stroke="white" stroke-width="1" width="90" height="85"/>
  <rect x="405" y="217.5" fill="none" stroke="white" stroke-width="1" width="90" height="85"/>
  <rect x="405" y="302.5" fill="none" stroke="white" stroke-width="1" width="90" height="85"/>
  <rect x="495" y="57.5" fill="none" stroke="white" stroke-width="1" width="90" height="85"/>
  <rect x="495" y="142.5" fill="none" stroke="white" stroke-width="1" width="90" height="85"/>
  <rect x="495" y="227.5" fill="none" stroke="white" stroke-width="1" width="90" height="85"/>
  <line x1="35" x2="305" y1="57.5" y2="27.5" stroke="white" stroke-width="1" sroke-linecap="round"/>

  <line x1="305" x2="415" y1="27.5" y2="27.5" stroke="white" stroke-width="1" sroke-linecap="round"/>

  <line x1="415" x2="595" y1="27.5" y2="47.5" stroke="white" stroke-width="1" sroke-linecap="round"/>

  <line x1="595" x2="595" y1="47.5" y2="322.5" stroke="white" stroke-width="1" sroke-linecap="round"/>

  <line x1="595" x2="505" y1="322.5" y2="397.5" stroke="white" stroke-width="1" sroke-linecap="round"/>

  <line x1="505" x2="145" y1="397.5" y2="417.5" stroke="white" stroke-width="1" sroke-linecap="round"/>

  <line x1="145" x2="35" y1="417.5" y2="417.5" stroke="white" stroke-width="1" sroke-linecap="round"/>

  <line x1="35" x2="35" y1="417.5" y2="57.5" stroke="white" stroke-width="1" sroke-linecap="round"/>

</svg>