
<svg version="1.1" id="Layer_1" xmlns="http://www.w3.org/2000/svg" xmlns:xlink="http://www.w3.org/1999/xlink" x="0px" y="0px" width="510px" height="510px" viewBox="0 0 510 510" enable-background="new 0 0 510 510" xml:space="preserve">
  <rect x="9" y="12.5" fill="none" stroke="#000000" stroke-width="10" width="17" height="17"/>
  <rect x="9" y="29.5" fill="none" stroke="#000000" stroke-width="10" width="17" height="17"/>
  <rect x="9" y="46.5" fill="none" stroke="#000000" stroke-width="10" width="17" height="17"/>
  <rect x="9" y="63.5" fill="none" stroke="#000000" stroke-width="10" width="17" height="17"/>
  <rect x="27" y="9.5" fill="none" stroke="#000000" stroke-width="10" width="17" height="17"/>
  <rect x="27" y="26.5" fill="none" stroke="#000000" stroke-width="10" width="17" height="17"/>
  <rect x="27" y="43.5" fill="none" stroke="#000000" stroke-width="10" width="17" height="17"/>
  <rect x="27" y="60.5" fill="none" stroke="#000000" stroke-width="10" width="17" height="17"/>
  <rect x="45" y="-11.5" fill="none" stroke="#000000" stroke-width="10" width="17" height="17"/>
  <rect x="45" y="5.5" fill="none" stroke="#000000" stroke-width="10" width="17" height="17"/>
  <rect x="45" y="22.5" fill="none" stroke="#000000" stroke-width="10" width="17" height="17"/>
  <rect x="45" y="39.5" fill="none" stroke="#000000" stroke-width="10" width="17" height="17"/>
  <rect x="63" y="9.5" fill="none" stroke="#000000" stroke-width="10" width="17" height="17"/>
  <rect x="63" y="26.5" fill="none" stroke="#000000" stroke-width="10" width="17" height="17"/>
  <rect x="63" y="43.5" fill="none" stroke="#000000" stroke-width="10" width="17" height="17"/>
  <rect x="63" y="60.5" fill="none" stroke="#000000" stroke-width="10" width="17" height="17"/>
  <rect x="81" y="10.5" fill="none" stroke="#000000" stroke-width="10" width="17" height="17"/>
  <rect x="81" y="27.5" fill="none" stroke="#000000" stroke-width="10" width="17" height="17"/>
  <rect x="81" y="44.5" fill="none" stroke="#000000" stroke-width="10" width="17" height="17"/>
</svg>